<?xml version="1.0" standalone="no"?>
<!DOCTYPE svg PUBLIC "-//W3C//DTD SVG 20010904//EN"
 "http://www.w3.org/TR/2001/REC-SVG-20010904/DTD/svg10.dtd">
<svg version="1.0" xmlns="http://www.w3.org/2000/svg"
 width="620.000000pt" height="620.000000pt" viewBox="0 0 620.000000 620.000000"
 preserveAspectRatio="xMidYMid meet">
<metadata>
Created by potrace 1.14, written by Peter Selinger 2001-2017
</metadata>
<g transform="translate(0.000000,620.000000) scale(0.100000,-0.100000)"
fill="#000000" stroke="none">
<path d="M3005 6022 c-2 -2 -24 -4 -49 -4 -25 0 -46 -3 -46 -6 0 -4 -21 -7
-48 -7 -26 1 -54 -2 -62 -6 -8 -4 -31 -10 -50 -13 -39 -8 -65 -14 -65 -16 0
-1 -9 -4 -20 -6 -11 -3 -24 -6 -30 -7 -5 -1 -16 -6 -22 -10 -7 -5 -17 -5 -23
-2 -5 3 -10 1 -10 -4 0 -6 -9 -11 -19 -11 -11 0 -23 -5 -26 -11 -4 -6 -13 -8
-20 -5 -8 3 -15 0 -17 -5 -2 -6 -10 -11 -18 -12 -37 -6 -224 -107 -241 -130
-3 -5 -9 -7 -11 -5 -3 1 -20 -8 -38 -22 -18 -14 -35 -25 -39 -25 -3 0 -17 -11
-32 -25 -50 -48 -77 -68 -83 -63 -3 4 -6 -1 -6 -10 0 -10 -7 -17 -15 -17 -8 0
-14 -3 -12 -7 1 -5 -2 -9 -6 -10 -5 -1 -22 -19 -38 -39 -16 -20 -29 -33 -29
-28 0 5 -8 -3 -17 -16 -10 -14 -25 -34 -35 -45 -41 -48 -54 -64 -68 -86 -8
-12 -23 -31 -32 -41 -10 -10 -15 -18 -12 -18 3 0 -8 -19 -25 -42 -17 -23 -31
-46 -31 -51 0 -5 -9 -22 -21 -38 -11 -16 -17 -29 -12 -29 4 0 4 -4 -2 -8 -8
-6 -51 -87 -45 -87 1 0 -5 -13 -14 -29 -8 -16 -13 -33 -10 -38 3 -4 0 -8 -6
-8 -7 0 -10 -7 -6 -15 3 -8 1 -15 -3 -15 -8 0 -34 -89 -30 -100 1 -3 -3 -16
-10 -28 -7 -13 -15 -38 -17 -55 -5 -40 -12 -72 -14 -72 -2 0 -3 -16 -4 -35 -1
-19 -4 -39 -7 -45 -3 -5 -5 -49 -5 -97 1 -49 -2 -88 -5 -88 -3 0 -5 -16 -5
-35 1 -19 5 -35 9 -35 4 0 3 -8 -2 -19 -6 -10 -8 -21 -5 -24 5 -5 16 -93 18
-149 1 -16 4 -28 7 -28 5 0 20 -71 24 -115 0 -5 4 -16 8 -22 5 -7 5 -13 1 -13
-3 0 -2 -6 3 -12 6 -7 14 -26 18 -43 12 -44 12 -45 15 -50 1 -3 3 -8 5 -12 2
-8 19 -53 32 -83 3 -8 5 -18 5 -22 -1 -5 2 -8 8 -8 6 0 9 -3 8 -7 -4 -13 70
-153 87 -165 7 -5 7 -8 0 -8 -6 0 -6 -3 1 -8 6 -4 30 -36 54 -72 24 -36 56
-77 72 -92 15 -16 25 -28 22 -28 -3 0 11 -16 31 -37 19 -20 35 -40 35 -45 0
-4 4 -8 9 -8 5 0 37 -27 71 -60 34 -33 65 -60 68 -60 4 0 18 -10 32 -23 14
-13 40 -32 58 -42 17 -11 32 -23 32 -27 0 -4 7 -8 15 -8 8 0 15 -5 15 -11 0
-5 5 -7 10 -4 6 3 10 1 10 -4 0 -6 5 -11 11 -11 6 0 24 -9 40 -21 16 -11 29
-17 29 -12 0 4 4 2 9 -5 4 -7 14 -14 22 -16 8 -1 25 -8 39 -16 14 -8 27 -15
30 -15 3 -1 19 -7 35 -14 102 -40 132 -51 150 -54 11 -1 26 -6 33 -10 6 -5 17
-5 22 -2 6 3 10 2 10 -3 0 -5 24 -13 53 -17 53 -8 65 -11 70 -15 4 -4 73 -11
130 -13 31 -1 57 -4 57 -7 0 -8 146 -4 159 4 6 4 11 2 11 -4 0 -6 5 -8 11 -5
5 4 37 9 71 11 56 4 70 6 124 18 33 7 98 18 112 19 6 0 12 4 12 9 0 4 3 7 8 6
9 -2 74 13 87 20 6 4 17 7 25 9 8 1 23 6 35 12 33 15 59 24 68 23 4 -1 7 2 7
8 0 5 6 10 13 10 18 0 165 77 205 108 17 13 32 20 32 16 0 -5 4 -4 8 1 4 6 27
26 52 45 25 19 47 38 48 42 2 5 9 8 15 8 7 0 33 22 60 49 26 27 47 47 47 45 0
-4 79 82 106 115 10 13 25 29 32 36 6 8 12 16 12 19 0 3 8 15 18 25 32 37 42
50 42 61 0 5 5 10 11 10 5 0 8 4 4 9 -3 6 1 13 8 18 8 4 29 37 48 73 18 36 38
68 44 72 6 4 6 8 0 8 -5 0 -4 5 3 12 7 7 12 18 12 26 0 8 8 21 18 29 10 8 11
11 2 7 -13 -7 -13 -5 -1 9 7 9 10 17 5 17 -4 0 1 7 12 15 10 8 14 15 8 15 -8
0 -5 13 7 36 10 21 16 41 13 45 -3 5 -1 9 4 9 5 0 9 7 10 15 1 8 3 22 4 30 1
8 5 15 9 15 5 0 6 6 3 14 -3 8 0 25 7 38 7 13 12 29 10 36 -1 8 3 20 10 28 9
11 9 14 0 14 -7 0 -9 5 -5 11 7 12 12 47 17 115 2 22 6 44 8 50 8 14 3 216 -5
243 -6 18 -5 22 4 16 9 -6 11 -4 5 5 -7 12 -10 28 -20 105 -2 17 -4 30 -5 30
-2 0 -4 9 -6 20 -3 21 -10 54 -20 95 -3 14 -7 33 -7 43 -1 9 -5 17 -9 17 -4 0
-8 10 -8 23 0 12 -8 33 -17 46 -12 18 -13 22 -2 16 8 -5 5 1 -5 13 -11 12 -16
22 -12 22 3 0 -5 22 -19 50 -14 27 -25 56 -25 65 0 8 -4 15 -8 15 -9 0 -48 81
-44 93 1 4 -2 7 -7 7 -6 0 -22 23 -37 50 -15 28 -31 50 -36 50 -5 0 -7 4 -4 9
3 5 -1 11 -9 15 -8 3 -15 11 -15 18 0 8 -9 20 -20 28 -11 8 -20 18 -20 23 0 5
-20 29 -45 53 -24 24 -42 44 -39 44 3 0 -11 16 -32 35 -20 19 -41 35 -46 35
-5 0 -6 5 -3 10 3 6 2 10 -4 10 -6 0 -22 12 -36 27 -14 15 -25 25 -25 20 0 -4
-13 7 -30 25 -16 17 -30 27 -30 22 0 -5 -4 -4 -8 3 -10 15 -80 63 -92 63 -6 0
-10 4 -10 8 0 5 -35 26 -77 48 -43 21 -81 43 -84 47 -3 5 -8 8 -10 7 -2 -1
-17 3 -32 9 -16 6 -33 11 -38 11 -5 0 -9 5 -9 12 0 6 -3 9 -6 5 -3 -3 -26 3
-50 13 -24 11 -44 17 -44 13 0 -3 -7 0 -15 7 -8 7 -15 9 -15 5 0 -4 -6 -3 -12
2 -7 6 -20 10 -28 10 -8 0 -38 7 -67 16 -28 8 -54 13 -56 10 -3 -3 -12 -1 -19
3 -7 5 -26 9 -43 10 -16 1 -30 3 -30 4 0 1 -14 3 -32 3 -17 1 -35 5 -38 9 -4
4 -15 3 -25 -2 -10 -5 -20 -6 -24 -2 -7 6 -185 10 -191 4z m245 -243 c0 -4 10
-6 23 -5 12 1 47 -4 77 -10 30 -7 57 -11 59 -8 2 2 10 -1 18 -7 7 -6 13 -8 13
-4 0 4 6 2 14 -4 8 -6 18 -11 22 -10 5 1 12 0 17 -1 4 -1 10 -3 15 -4 26 -5
138 -52 144 -60 4 -6 10 -8 13 -4 4 4 28 -7 53 -23 25 -16 49 -29 53 -29 12 0
133 -82 151 -102 9 -11 18 -18 20 -16 6 6 48 -29 41 -35 -3 -4 -1 -7 5 -7 6 0
29 -18 51 -39 22 -21 42 -36 45 -33 3 3 6 0 6 -7 0 -6 12 -25 28 -41 56 -60
72 -80 72 -90 0 -5 4 -10 8 -10 5 0 15 -12 23 -27 8 -15 21 -36 29 -45 21 -26
91 -159 96 -182 2 -11 7 -22 12 -25 6 -5 34 -77 38 -101 0 -3 3 -12 7 -20 12
-31 26 -86 32 -124 3 -21 7 -42 10 -45 15 -25 29 -370 16 -396 -6 -12 -9 -28
-15 -75 -2 -19 -5 -35 -6 -35 -1 0 -3 -9 -4 -20 -2 -11 -9 -40 -16 -65 -7 -25
-13 -49 -15 -55 -1 -5 -7 -23 -13 -38 -7 -16 -12 -32 -12 -36 0 -8 -41 -98
-72 -156 -11 -22 -26 -50 -32 -62 -6 -13 -14 -23 -18 -23 -5 0 -8 -6 -8 -13 0
-8 -9 -22 -20 -32 -11 -10 -20 -23 -20 -29 0 -7 -8 -19 -17 -27 -10 -9 -25
-26 -33 -38 -38 -58 -179 -189 -270 -251 -36 -25 -67 -47 -70 -51 -3 -3 -22
-13 -42 -22 -21 -10 -38 -22 -38 -27 0 -6 -3 -9 -7 -8 -5 1 -21 -4 -36 -10
-16 -7 -33 -12 -38 -12 -5 0 -9 -5 -9 -11 0 -5 -4 -7 -10 -4 -5 3 -10 1 -10
-5 0 -6 -4 -9 -8 -6 -5 3 -20 -1 -35 -9 -14 -7 -28 -11 -31 -7 -3 3 -6 0 -6
-6 0 -7 -3 -11 -7 -11 -5 1 -10 0 -13 -1 -5 -2 -22 -6 -55 -13 -11 -2 -27 -7
-35 -10 -8 -3 -33 -9 -55 -13 -22 -4 -47 -9 -55 -11 -8 -1 -36 -4 -62 -5 -27
-2 -48 -6 -48 -9 0 -3 -7 -6 -15 -6 -8 0 -15 5 -15 10 0 6 -5 6 -12 0 -20 -15
-333 1 -333 17 0 1 -13 4 -30 6 -16 3 -55 12 -85 21 -30 9 -58 17 -62 17 -3 1
-10 4 -14 9 -4 4 -14 7 -21 7 -8 0 -39 11 -69 25 -30 14 -59 25 -64 25 -6 0
-10 4 -10 8 0 4 -16 14 -35 21 -19 7 -35 17 -35 22 0 6 -4 8 -9 4 -5 -3 -16 2
-24 10 -9 8 -18 15 -22 15 -3 0 -11 5 -18 10 -7 6 -35 28 -63 48 -68 51 -75
57 -152 136 -37 38 -75 76 -84 85 -10 8 -18 21 -18 27 0 7 -4 14 -9 16 -13 5
-107 148 -133 203 -12 28 -27 53 -33 57 -5 4 -6 8 -1 8 5 0 3 6 -3 13 -6 8 -8
17 -4 20 3 4 1 7 -5 7 -6 0 -14 15 -17 33 -4 17 -12 38 -17 45 -6 6 -7 12 -4
12 4 0 4 6 -1 13 -8 12 -13 32 -15 55 -1 6 -5 12 -9 12 -4 0 -6 11 -4 25 1 14
-1 28 -6 30 -4 3 -6 14 -4 25 2 11 0 20 -4 20 -4 0 -8 6 -8 13 0 6 -4 44 -8
82 -13 123 -8 305 9 333 4 7 1 12 -6 12 -8 0 -9 3 -3 8 6 4 11 18 12 32 3 42
14 94 24 113 5 9 7 17 3 17 -3 0 -1 6 5 13 6 8 9 16 6 19 -3 3 3 26 14 52 11
25 18 46 15 46 -2 0 3 11 12 25 8 13 13 28 10 34 -3 5 1 12 10 15 8 3 12 10 9
16 -3 5 -1 10 6 10 7 0 10 3 6 6 -3 3 8 27 24 52 16 26 34 59 40 75 6 15 15
27 21 27 5 0 7 4 4 9 -3 5 1 12 10 15 9 4 14 9 11 12 -3 4 4 15 16 25 12 10
19 18 15 19 -4 0 6 14 24 30 17 17 28 30 25 30 -3 0 27 34 68 75 41 41 79 75
84 75 5 0 12 7 15 16 3 8 10 12 16 9 5 -3 10 1 10 9 0 8 10 18 23 22 12 4 24
10 27 13 14 19 78 60 83 54 4 -3 7 -1 7 5 0 7 6 12 14 12 8 0 16 4 18 8 4 11
155 82 173 82 8 0 15 4 15 10 0 5 7 7 15 4 8 -4 15 -1 15 5 0 7 6 11 13 10 13
-2 41 7 71 22 14 8 16 7 11 -2 -6 -9 -4 -9 6 -3 8 5 17 9 22 10 4 1 8 2 10 3
1 2 11 4 22 6 89 18 118 22 140 20 14 -2 25 0 25 4 0 4 63 7 140 7 77 -1 140
-4 140 -7z"/>
<path d="M2412 5427 c-23 -12 -57 -36 -77 -54 -19 -17 -35 -30 -35 -28 0 4
-69 -66 -115 -117 -17 -18 -44 -51 -60 -73 -16 -22 -35 -46 -42 -53 -7 -7 -13
-20 -13 -28 0 -8 -3 -14 -7 -14 -5 0 -24 -33 -43 -73 -19 -39 -39 -75 -43 -78
-5 -3 -7 -8 -6 -10 1 -2 -3 -20 -10 -39 -6 -19 -12 -36 -12 -37 0 -2 -6 -18
-15 -38 -8 -19 -11 -35 -8 -35 4 0 2 -6 -3 -12 -6 -7 -11 -20 -12 -28 -4 -49
-7 -66 -13 -70 -8 -6 1 -46 17 -72 14 -23 82 -32 100 -14 8 8 19 16 24 18 5 1
12 17 15 33 3 17 10 48 16 70 6 22 13 51 16 64 3 13 10 34 17 45 6 12 11 26
12 31 0 6 11 33 25 60 13 28 23 53 22 58 -1 4 3 7 8 7 6 0 15 11 20 25 12 33
90 135 102 135 5 0 7 4 4 8 -6 9 125 138 136 135 5 -2 8 4 8 13 0 8 4 13 9 9
5 -3 17 5 25 17 9 12 16 19 16 14 0 -23 36 27 38 53 2 33 -15 87 -25 77 -4 -3
-16 0 -28 8 -19 12 -26 12 -63 -7z"/>
<path d="M2855 4736 c-40 -42 -75 -85 -75 -92 0 -4 -8 -14 -18 -23 -10 -9 -31
-34 -48 -56 -16 -22 -39 -51 -51 -65 -13 -14 -23 -31 -23 -38 0 -7 -4 -10 -10
-7 -5 3 -10 2 -10 -4 0 -5 -6 -16 -12 -23 -7 -7 -29 -34 -48 -58 -19 -25 -38
-46 -42 -48 -4 -2 -8 -8 -8 -14 0 -6 -11 -21 -26 -34 -14 -13 -22 -24 -17 -24
4 0 -3 -7 -15 -16 -12 -8 -20 -20 -17 -25 4 -5 2 -9 -2 -9 -5 0 -25 -21 -45
-48 -20 -26 -46 -58 -57 -71 -12 -13 -21 -27 -21 -31 0 -15 -32 -20 -45 -7 -7
6 -27 23 -45 37 -18 14 -43 35 -56 48 -13 12 -25 22 -28 22 -3 0 -16 10 -29
23 -63 59 -96 75 -54 25 51 -61 57 -69 57 -74 0 -4 18 -28 40 -54 22 -26 40
-51 40 -55 0 -4 11 -18 26 -31 14 -13 23 -24 20 -24 -3 0 2 -10 12 -21 52 -65
62 -74 69 -63 9 13 65 82 93 114 10 12 33 39 52 62 18 23 39 47 46 54 6 7 12
18 12 24 0 6 5 8 10 5 6 -3 10 -2 10 3 0 5 11 21 25 36 13 15 29 35 35 46 11
20 50 24 50 4 0 -6 11 -23 24 -37 14 -15 37 -44 53 -64 15 -21 36 -47 46 -57
9 -11 17 -26 17 -33 0 -8 4 -12 8 -9 5 3 15 -7 23 -21 8 -15 24 -38 36 -51 22
-24 23 -36 8 -122 -4 -19 -11 -53 -17 -75 -11 -40 -17 -76 -21 -125 -1 -14 -5
-27 -9 -30 -3 -3 -9 -25 -12 -50 -2 -25 -5 -45 -6 -45 -2 0 -9 -33 -14 -70 -3
-16 -5 -30 -6 -30 -2 0 -11 -38 -15 -65 -1 -14 -4 -27 -5 -30 -1 -3 -2 -8 -2
-11 1 -4 -3 -21 -8 -37 -6 -22 -5 -34 4 -41 7 -6 15 -8 18 -6 3 3 17 1 32 -5
27 -10 64 -18 121 -26 51 -8 305 -11 305 -4 0 4 15 6 33 5 17 -1 36 0 42 3 5
4 16 7 25 8 95 12 133 28 126 52 -3 9 -8 29 -11 45 -3 15 -8 39 -11 55 -3 15
-7 38 -9 52 -2 14 -4 25 -5 25 -1 0 -3 11 -4 25 -2 14 -6 35 -10 47 -4 13 -9
33 -12 45 -10 56 -13 69 -19 78 -3 6 0 10 7 10 11 0 11 2 0 9 -7 4 -12 12 -11
17 1 5 0 12 -1 17 -1 4 -4 16 -5 27 -1 11 -3 21 -5 23 -2 2 -3 10 -15 67 -22
112 -22 150 -1 162 9 5 16 16 16 24 0 8 5 12 10 9 6 -3 10 1 10 9 0 9 5 16 10
16 6 0 10 6 10 14 0 8 7 16 15 20 8 3 15 10 15 16 0 10 28 46 65 83 11 11 13
16 5 12 -8 -5 -4 3 10 17 14 13 33 36 43 51 l19 26 21 -24 c12 -13 38 -43 57
-66 19 -23 52 -62 74 -86 21 -23 36 -43 32 -43 -3 0 7 -12 22 -27 37 -38 88
-98 100 -119 9 -16 11 -16 35 3 15 11 23 23 20 27 -3 3 -1 6 5 6 7 0 12 7 12
15 0 7 6 18 13 22 16 11 57 70 57 83 0 6 5 8 10 5 6 -3 10 1 10 10 0 9 5 13
10 10 6 -3 10 0 10 8 0 8 11 26 25 41 13 14 21 26 18 26 -3 0 4 9 17 20 13 11
20 20 16 20 -4 0 2 10 14 22 11 12 18 23 16 25 -5 5 -35 -19 -77 -60 -16 -16
-29 -26 -29 -22 0 3 -11 -5 -24 -19 -13 -15 -26 -26 -30 -26 -4 0 -17 -11 -30
-25 -13 -14 -28 -25 -34 -25 -6 0 -12 -5 -14 -11 -4 -12 -38 -1 -38 12 0 10
-3 14 -43 60 -12 14 -33 40 -47 59 -14 18 -32 41 -41 51 -8 10 -24 30 -35 45
-10 14 -29 37 -42 50 -13 13 -20 24 -17 24 5 0 -4 11 -62 76 -13 14 -23 29
-23 34 0 6 -5 10 -10 10 -6 0 -14 8 -17 17 -4 9 -14 24 -22 33 -35 36 -61 71
-61 80 0 5 -8 15 -18 22 -10 7 -27 26 -38 43 -10 16 -26 37 -34 45 -8 9 -23
27 -33 41 l-18 25 -222 0 -222 1 -30 -31z"/>
<path d="M2810 2715 c-7 -8 -13 -31 -14 -50 0 -19 -5 -35 -10 -35 -4 0 -6 -6
-3 -13 3 -8 -1 -41 -8 -75 -7 -34 -10 -64 -7 -67 3 -3 0 -5 -8 -5 -9 0 -10 -3
-1 -13 6 -8 8 -17 4 -21 -4 -3 -8 -12 -9 -19 -1 -7 -5 -30 -8 -52 -4 -23 -9
-52 -11 -65 -3 -14 -8 -42 -10 -63 -2 -21 -6 -41 -9 -45 -2 -4 -7 -29 -11 -57
-4 -27 -9 -59 -10 -70 -2 -11 -4 -21 -5 -22 -2 -2 -4 -12 -5 -23 -1 -11 -3
-21 -4 -22 -2 -2 -5 -21 -7 -43 -3 -21 -10 -45 -16 -52 -7 -9 -7 -13 0 -13 7
0 6 -12 -3 -34 -8 -18 -12 -36 -8 -39 3 -4 2 -14 -2 -24 -9 -20 -13 -35 -19
-78 -3 -16 -7 -42 -10 -57 -3 -16 -8 -40 -11 -55 -11 -55 -16 -78 -21 -103 -3
-14 -7 -34 -9 -45 -11 -55 -17 -79 -21 -87 -3 -4 1 -8 8 -8 10 0 10 -2 0 -8
-7 -5 -14 -22 -17 -38 -2 -16 -8 -42 -13 -59 -5 -16 -8 -38 -6 -47 1 -10 -2
-18 -7 -18 -6 0 -8 -4 -4 -9 3 -5 1 -13 -5 -16 -8 -5 -8 -11 -1 -19 6 -7 7
-16 3 -20 -4 -4 0 -13 8 -19 9 -7 27 -30 40 -52 13 -22 30 -46 37 -53 7 -7 13
-20 13 -28 0 -8 7 -17 15 -20 8 -4 13 -10 10 -14 -3 -4 2 -11 11 -14 8 -3 12
-10 9 -16 -3 -5 -1 -10 4 -10 6 0 11 -6 11 -14 0 -8 7 -17 16 -20 8 -3 12 -10
9 -16 -3 -6 1 -13 9 -16 9 -3 13 -10 10 -15 -3 -5 -1 -9 4 -9 5 0 15 -13 22
-30 7 -16 15 -30 19 -30 3 0 17 -20 30 -45 13 -25 28 -45 32 -45 5 0 9 -5 9
-11 0 -6 14 -31 32 -57 18 -26 32 -49 31 -52 -1 -3 5 -9 13 -13 8 -5 12 -12 9
-18 -4 -5 -1 -9 5 -9 5 0 18 -16 27 -35 9 -19 20 -35 25 -35 4 0 8 -6 8 -14 0
-7 10 -24 23 -38 21 -25 61 -90 57 -96 -1 -2 9 -12 21 -23 21 -19 22 -19 38 0
10 11 26 36 36 55 11 20 23 36 27 36 5 0 8 6 8 13 0 7 9 23 20 35 12 12 18 22
15 22 -4 0 0 7 7 15 31 34 36 43 31 49 -4 3 -1 6 5 6 7 0 12 7 12 16 0 8 5 12
10 9 6 -3 10 3 10 14 0 12 5 21 10 21 6 0 10 7 10 15 0 9 7 18 15 21 8 4 15
11 15 16 0 5 9 21 20 35 11 14 18 29 15 32 -2 4 5 14 16 21 10 8 19 20 19 27
0 7 5 13 10 13 6 0 10 6 10 13 0 6 11 25 25 41 13 16 22 32 20 36 -3 4 2 11
11 14 9 4 14 9 11 12 -2 3 6 17 19 31 13 14 21 29 18 34 -3 5 0 9 5 9 6 0 11
7 11 16 0 8 3 13 8 10 4 -2 16 13 26 35 11 21 23 39 28 39 4 0 8 7 8 15 0 7 8
19 18 24 9 6 13 11 9 11 -4 0 3 16 17 37 19 28 23 41 15 55 -5 10 -7 18 -3 18
3 0 1 7 -6 15 -9 10 -9 15 -1 15 7 0 8 6 2 18 -21 43 -29 80 -17 93 8 9 8 10
-1 5 -9 -5 -13 1 -14 18 -1 26 -5 44 -8 49 -3 2 -7 27 -15 72 -2 17 -5 30 -6
30 -1 0 -6 26 -13 75 -2 8 -6 21 -10 28 -5 6 -6 16 -2 21 3 5 1 12 -3 15 -5 3
-8 15 -7 28 1 13 -1 28 -5 33 -4 6 -11 33 -14 60 -3 28 -10 66 -14 85 -5 19
-9 38 -10 43 -1 4 -2 8 -3 10 0 1 -2 13 -4 27 -3 25 -8 46 -21 105 -3 17 -7
45 -8 63 0 17 -3 32 -6 32 -3 0 -6 8 -7 18 -1 20 -11 87 -13 87 -3 0 -9 38
-15 80 -2 22 -7 54 -10 70 -4 17 -8 46 -10 65 -2 19 -4 35 -5 35 -1 0 -3 9 -5
20 -2 11 -6 34 -9 50 -8 43 -18 117 -19 138 -1 9 -5 17 -9 17 -4 0 -7 6 -6 13
2 6 -1 11 -7 10 -60 -10 -109 -15 -166 -18 -38 -2 -73 -6 -78 -9 -5 -4 -11 -1
-13 6 -3 8 -9 8 -23 1 -12 -7 -28 -8 -43 -2 -16 6 -29 6 -38 -2 -8 -6 -14 -7
-14 -2 0 5 -15 9 -32 10 -55 1 -137 11 -147 17 -5 3 -14 -1 -21 -9z"/>
</g>
</svg>
